<svg version="1.1" id="Layer_1" xmlns="http://www.w3.org/2000/svg" xmlns:xlink="http://www.w3.org/1999/xlink" x="0px" y="0px"
	 width="100%" viewBox="0 0 496 496" enable-background="new 0 0 496 496" xml:space="preserve">
<path fill="#000000" opacity="1.000000" stroke="none" 
	d="
M315.999939,183.331360 
	C236.209717,183.335770 156.919525,183.339935 77.629333,183.344223 
	C70.312408,183.344620 70.310089,183.344925 70.302208,190.849869 
	C70.296249,196.513458 70.348778,202.177811 70.263786,207.840149 
	C70.238136,209.549255 70.865662,211.537140 68.820480,212.947693 
	C66.426804,212.237335 66.904457,210.186539 66.892113,208.526154 
	C66.832664,200.530945 66.965569,192.532928 66.802795,184.540543 
	C66.737267,181.323380 67.979576,179.907684 71.126068,179.948227 
	C73.957191,179.984695 76.789253,179.945892 79.620895,179.945938 
	C194.391800,179.947418 309.162689,179.950882 423.933594,179.949554 
	C435.767151,179.949417 434.175140,179.908569 434.288757,190.202240 
	C434.354980,196.198212 434.355713,202.196442 434.262054,208.191711 
	C434.235901,209.865891 434.951111,211.965973 432.597626,212.916702 
	C430.299042,211.911133 430.936371,209.837524 430.915039,208.139633 
	C430.835480,201.810791 430.641205,195.467545 430.969696,189.154663 
	C431.212067,184.496445 429.496948,183.216217 424.939575,183.236954 
	C388.793640,183.401474 352.646637,183.330078 315.999939,183.331360 
z"/>
<path fill="#000000" opacity="1.000000" stroke="none" 
	d="
M289.896515,281.259155 
	C273.700958,280.937134 263.290558,271.305573 262.006378,254.751556 
	C260.934479,240.934219 268.112305,228.226181 282.842407,224.759262 
	C296.131073,221.631592 309.859253,228.115829 313.982697,239.510635 
	C310.441986,241.219330 307.773315,240.692505 304.979828,237.585449 
	C297.826080,229.628708 284.759399,228.913742 276.468933,235.680649 
	C268.415192,242.254318 266.737640,256.930817 273.030212,265.765076 
	C279.044189,274.208221 291.065765,276.602203 300.291504,271.161652 
	C305.201660,268.266022 307.881012,263.984680 308.427979,257.759521 
	C303.482666,256.710480 298.685669,257.406433 293.957367,257.187042 
	C291.468781,257.071564 288.665558,257.461548 288.772736,253.586487 
	C288.876953,249.816269 291.754608,250.657791 293.890320,250.627487 
	C300.832123,250.528946 307.776184,250.590607 315.257263,250.590607 
	C315.257263,259.954254 315.265228,268.733765 315.251648,277.513275 
	C315.248291,279.685242 313.920441,280.313873 311.973633,280.300354 
	C310.048584,280.286957 308.735931,279.716888 308.695190,277.508728 
	C308.671326,276.215240 308.530457,274.923920 308.397949,272.983246 
	C303.058075,278.044739 297.249146,280.934052 289.896515,281.259155 
z"/>
<path fill="#000000" opacity="1.000000" stroke="none" 
	d="
M415.988586,280.252869 
	C412.370911,280.705261 410.911591,279.373749 410.922363,276.134033 
	C410.974335,260.499756 410.984985,244.865158 410.935303,229.230911 
	C410.924469,225.821854 412.391846,224.555634 415.784882,224.626450 
	C423.598907,224.789520 431.424011,224.503860 439.234406,224.739182 
	C452.064911,225.125717 459.568420,235.438644 456.165558,247.699554 
	C454.893707,252.282211 453.136108,254.013184 444.663116,258.769745 
	C448.946686,265.546936 453.222900,272.312500 457.746704,279.469788 
	C452.916962,281.156708 449.640106,280.678314 447.212402,276.375610 
	C444.682281,271.891327 441.656311,267.688751 439.068359,263.234497 
	C437.366760,260.305786 435.156128,259.277771 431.751892,259.290009 
	C418.355835,259.338226 418.453796,259.227692 418.252625,272.598328 
	C418.214447,275.135681 419.856720,278.353485 415.988586,280.252869 
M427.560455,252.662186 
	C432.023010,252.427505 436.528320,253.202332 440.953705,252.075958 
	C446.797363,250.588623 449.654419,247.333420 449.639648,242.154755 
	C449.625061,237.055313 446.710388,233.619675 440.930359,232.187042 
	C434.381012,230.563751 427.703583,231.634125 421.084961,231.479919 
	C418.925171,231.429596 418.345001,232.924393 418.354401,234.828369 
	C418.378265,239.645355 418.409271,244.463165 418.344116,249.279388 
	C418.307983,251.949951 419.735779,252.750778 422.113678,252.663162 
	C423.606537,252.608139 425.103271,252.658554 427.560455,252.662186 
z"/>
<path fill="#000000" opacity="1.000000" stroke="none" 
	d="
M350.339478,243.731842 
	C349.919800,247.672409 351.513947,248.913681 354.941864,248.831711 
	C361.763031,248.668549 368.590912,248.753983 375.415710,248.790604 
	C378.028503,248.804611 381.060211,248.263397 381.141113,252.402512 
	C381.229156,256.906738 377.961456,256.252106 375.198456,256.266937 
	C368.373688,256.303650 361.547363,256.348816 354.724060,256.240723 
	C351.584106,256.190979 350.226501,257.319183 350.303070,260.619720 
	C350.670776,276.468262 348.011993,273.307220 362.962616,273.629700 
	C368.786224,273.755341 374.614594,273.676971 380.440704,273.661102 
	C382.675995,273.654999 384.298431,274.075989 384.307037,276.911743 
	C384.315216,279.597382 383.027618,280.376709 380.624878,280.369049 
	C369.305634,280.332977 357.986176,280.329803 346.666901,280.361115 
	C344.160919,280.368042 342.978180,279.183533 342.978149,276.746887 
	C342.977844,260.600830 342.979889,244.454742 343.002045,228.308716 
	C343.005341,225.910522 344.151062,224.669418 346.685791,224.678619 
	C358.004974,224.719604 369.324463,224.717865 380.643677,224.682495 
	C383.068695,224.674911 384.310181,225.517990 384.329468,228.162964 
	C384.348480,230.763062 383.153381,231.828568 380.747406,231.818039 
	C373.425812,231.785995 366.103363,231.774506 358.783356,231.641205 
	C356.130157,231.592865 353.500122,231.399216 350.755890,232.400589 
	C349.907837,235.999359 350.526917,239.662857 350.339478,243.731842 
z"/>
<path fill="#000000" opacity="1.000000" stroke="none" 
	d="
M62.172874,256.274628 
	C56.766861,255.502640 54.670727,257.347839 55.114273,262.557190 
	C55.508507,267.187408 55.148056,271.879639 55.175377,276.544220 
	C55.191383,279.277069 53.936310,280.399384 51.189003,280.361542 
	C48.587177,280.325684 47.670605,279.139923 47.676220,276.682495 
	C47.713169,260.521790 47.717503,244.360977 47.686283,228.200287 
	C47.681324,225.634125 48.855370,224.662613 51.345249,224.682571 
	C53.742573,224.701797 55.179356,225.507767 55.179905,228.107697 
	C55.181068,233.605530 55.285404,239.104752 55.188560,244.600616 
	C55.136791,247.538162 56.251247,248.849396 59.281303,248.810867 
	C66.610695,248.717636 73.945084,248.673767 81.271698,248.849747 
	C84.911621,248.937180 85.825890,247.268509 85.718826,243.985840 
	C85.550560,238.826904 85.719940,233.657684 85.691566,228.493118 
	C85.678741,226.159378 86.349503,224.689850 89.068558,224.685852 
	C91.632477,224.682083 93.235085,225.365494 93.227837,228.289047 
	C93.187744,244.449493 93.189659,260.610046 93.190323,276.770569 
	C93.190430,279.262299 92.011337,280.316559 89.507759,280.355713 
	C86.685463,280.399872 85.655594,279.088470 85.685387,276.415741 
	C85.742966,271.251678 85.542534,266.081055 85.730965,260.923431 
	C85.855995,257.501068 84.657112,256.107239 81.139343,256.215179 
	C74.980568,256.404114 68.811958,256.272522 62.172874,256.274628 
z"/>
<path fill="#000000" opacity="1.000000" stroke="none" 
	d="
M220.743210,264.411621 
	C215.292130,264.436584 210.299591,264.597198 205.317337,264.437225 
	C202.249573,264.338715 200.317764,265.260406 199.369232,268.352417 
	C198.642487,270.721497 197.221817,272.879608 196.513947,275.252136 
	C195.053162,280.148193 192.044037,281.411804 187.044724,279.613831 
	C189.176193,271.834686 192.995026,264.809937 195.913879,257.454956 
	C199.651810,248.036118 203.856125,238.803284 207.765686,229.451080 
	C209.006485,226.482956 210.394714,224.488327 214.237717,224.539703 
	C217.807999,224.587448 219.135513,226.303238 220.328644,229.143921 
	C226.763138,244.463806 233.320862,259.731903 239.804504,275.031250 
	C240.374481,276.376251 241.205185,277.701447 240.799362,279.618408 
	C236.809067,281.118530 233.618683,280.834595 232.040039,275.994324 
	C231.371796,273.945435 230.284500,272.027527 229.681625,269.964203 
	C228.413589,265.624451 225.781921,263.591949 220.743210,264.411621 
M222.917130,257.091705 
	C222.095444,248.731354 217.363708,241.911575 214.193207,233.351685 
	C210.620026,241.817795 207.062897,249.037231 204.439224,257.472534 
	C210.814285,257.472534 216.543961,257.472534 222.917130,257.091705 
z"/>
<path fill="#000000" opacity="1.000000" stroke="none" 
	d="
M434.303284,298.037842 
	C434.300201,304.529175 434.147430,310.531799 434.347626,316.522614 
	C434.472473,320.257446 432.969543,321.662750 429.346710,321.391205 
	C427.027863,321.217438 424.684479,321.377472 422.352081,321.377502 
	C305.564941,321.380127 188.777786,321.382599 71.990646,321.372772 
	C70.519676,321.372650 68.989449,321.726837 67.574814,320.875519 
	C67.574814,310.976440 67.574814,301.094391 67.574814,290.983063 
	C71.017227,291.757721 70.220703,293.966339 70.248833,295.561401 
	C70.360413,301.890350 70.385178,308.223785 70.269157,314.552399 
	C70.214386,317.539856 71.362411,318.848022 74.382225,318.681488 
	C76.707092,318.553253 79.045502,318.677338 81.377884,318.677338 
	C195.332855,318.677490 309.287811,318.676392 423.242798,318.675232 
	C430.835022,318.675171 430.845612,318.674438 430.865387,310.883667 
	C430.881042,304.719482 430.815674,298.554565 430.898376,292.391479 
	C430.921204,290.687134 430.271179,288.631653 432.996368,287.260284 
	C435.414948,290.469055 433.831696,294.196136 434.303284,298.037842 
z"/>
<path fill="#000000" opacity="1.000000" stroke="none" 
	d="
M153.149536,236.177643 
	C154.969467,233.560410 156.785385,231.350372 158.157562,228.892593 
	C160.524048,224.653854 163.916580,223.824921 168.265198,225.197128 
	C169.132111,227.415649 167.347000,228.616165 166.396088,230.014374 
	C161.249161,237.582428 156.199371,245.229355 150.725479,252.557343 
	C147.458557,256.930817 145.828171,261.428955 146.341003,266.883484 
	C146.651123,270.181732 146.340256,273.536163 146.356079,276.865112 
	C146.366348,279.026428 145.625122,280.278473 143.196732,280.327118 
	C140.605392,280.379059 139.529816,279.239349 139.657028,276.741211 
	C139.690842,276.077484 139.549576,275.393738 139.655502,274.746521 
	C141.574326,263.022491 137.240646,253.490311 129.900742,244.627930 
	C125.083405,238.811356 121.165161,232.250137 116.552734,225.602219 
	C121.943123,223.811859 125.187363,224.730057 127.909050,228.943695 
	C132.478867,236.018539 137.515427,242.791901 142.685257,250.162048 
	C147.163483,245.693436 149.723785,240.824539 153.149536,236.177643 
z"/>
</svg>